<mxfile host="app.diagrams.net" modified="2020-07-24T09:18:14.010Z" agent="5.0 (Windows NT 10.0; Win64; x64) AppleWebKit/537.36 (KHTML, like Gecko) Chrome/79.0.3945.117 Safari/537.36" etag="Rl4gIgePLoXzPINtcPwC" version="13.5.1" type="github">
  <diagram id="2f404044-711c-603c-8f00-f6bb4c023d3c" name="Page-1">
    <mxGraphModel dx="2591" dy="762" grid="1" gridSize="10" guides="1" tooltips="1" connect="1" arrows="1" fold="1" page="1" pageScale="1" pageWidth="1169" pageHeight="827" background="#ffffff" math="0" shadow="0">
      <root>
        <mxCell id="0" />
        <mxCell id="1" parent="0" />
        <mxCell id="MNPkCpIOQmmKLzgTn6AA-100" style="edgeStyle=orthogonalEdgeStyle;rounded=0;orthogonalLoop=1;jettySize=auto;html=1;strokeWidth=3;fillColor=#1ba1e2;strokeColor=#006EAF;" edge="1" parent="1" source="MNPkCpIOQmmKLzgTn6AA-62" target="MNPkCpIOQmmKLzgTn6AA-99">
          <mxGeometry relative="1" as="geometry" />
        </mxCell>
        <mxCell id="MNPkCpIOQmmKLzgTn6AA-62" value="" style="aspect=fixed;perimeter=ellipsePerimeter;html=1;align=center;shadow=0;dashed=0;fontColor=#4277BB;labelBackgroundColor=#ffffff;fontSize=12;spacingTop=3;image;image=img/lib/ibm/data/cloud.svg;" vertex="1" parent="1">
          <mxGeometry x="-1000" y="124" width="60" height="60" as="geometry" />
        </mxCell>
        <mxCell id="MNPkCpIOQmmKLzgTn6AA-92" style="edgeStyle=orthogonalEdgeStyle;rounded=0;orthogonalLoop=1;jettySize=auto;html=1;fillColor=#1ba1e2;strokeColor=#006EAF;strokeWidth=3;" edge="1" parent="1" source="MNPkCpIOQmmKLzgTn6AA-64" target="MNPkCpIOQmmKLzgTn6AA-86">
          <mxGeometry relative="1" as="geometry" />
        </mxCell>
        <mxCell id="MNPkCpIOQmmKLzgTn6AA-94" style="edgeStyle=orthogonalEdgeStyle;rounded=0;orthogonalLoop=1;jettySize=auto;html=1;strokeWidth=3;fillColor=#1ba1e2;strokeColor=#006EAF;" edge="1" parent="1" source="MNPkCpIOQmmKLzgTn6AA-64" target="MNPkCpIOQmmKLzgTn6AA-85">
          <mxGeometry relative="1" as="geometry" />
        </mxCell>
        <object label="Control Group Exclusion" id="MNPkCpIOQmmKLzgTn6AA-64">
          <mxCell style="ellipse;whiteSpace=wrap;html=1style=&quot;background-color:powderblue;&quot;;aspect=fixed;fillColor=#dae8fc;strokeColor=#6c8ebf;" vertex="1" parent="1">
            <mxGeometry x="-720" y="122" width="64" height="64" as="geometry" />
          </mxCell>
        </object>
        <mxCell id="MNPkCpIOQmmKLzgTn6AA-90" style="edgeStyle=orthogonalEdgeStyle;rounded=0;orthogonalLoop=1;jettySize=auto;html=1;fillColor=#1ba1e2;strokeColor=#006EAF;strokeWidth=3;" edge="1" parent="1" source="MNPkCpIOQmmKLzgTn6AA-71" target="MNPkCpIOQmmKLzgTn6AA-87">
          <mxGeometry relative="1" as="geometry" />
        </mxCell>
        <mxCell id="MNPkCpIOQmmKLzgTn6AA-71" value="" style="shape=image;html=1;verticalAlign=top;verticalLabelPosition=bottom;labelBackgroundColor=#ffffff;imageAspect=0;aspect=fixed;image=https://cdn3.iconfinder.com/data/icons/essential-rounded/66/Rounded-06-128.png" vertex="1" parent="1">
          <mxGeometry x="-584" y="259.48" width="68" height="68" as="geometry" />
        </mxCell>
        <mxCell id="MNPkCpIOQmmKLzgTn6AA-82" style="edgeStyle=orthogonalEdgeStyle;rounded=0;orthogonalLoop=1;jettySize=auto;html=1;fillColor=#1ba1e2;strokeColor=#006EAF;strokeWidth=3;" edge="1" parent="1" source="MNPkCpIOQmmKLzgTn6AA-76" target="MNPkCpIOQmmKLzgTn6AA-88">
          <mxGeometry relative="1" as="geometry">
            <mxPoint x="-297" y="150" as="targetPoint" />
          </mxGeometry>
        </mxCell>
        <mxCell id="MNPkCpIOQmmKLzgTn6AA-76" value="" style="outlineConnect=0;fontColor=#232F3E;gradientColor=none;fillColor=#116D5B;strokeColor=none;dashed=0;verticalLabelPosition=bottom;verticalAlign=top;align=center;html=1;fontSize=12;fontStyle=0;aspect=fixed;shape=mxgraph.aws4.transfer_for_sftp_resource;" vertex="1" parent="1">
          <mxGeometry x="-276" y="259.74" width="66" height="67.74" as="geometry" />
        </mxCell>
        <mxCell id="MNPkCpIOQmmKLzgTn6AA-102" style="edgeStyle=orthogonalEdgeStyle;rounded=0;orthogonalLoop=1;jettySize=auto;html=1;strokeWidth=3;fillColor=#1ba1e2;strokeColor=#006EAF;" edge="1" parent="1" source="MNPkCpIOQmmKLzgTn6AA-80">
          <mxGeometry relative="1" as="geometry">
            <mxPoint x="180" y="154" as="targetPoint" />
          </mxGeometry>
        </mxCell>
        <mxCell id="MNPkCpIOQmmKLzgTn6AA-80" value="" style="shape=image;html=1;verticalAlign=top;verticalLabelPosition=bottom;labelBackgroundColor=#ffffff;imageAspect=0;aspect=fixed;image=https://cdn0.iconfinder.com/data/icons/fatcow/32x32/sql_join.png" vertex="1" parent="1">
          <mxGeometry x="-95" y="109" width="90" height="90" as="geometry" />
        </mxCell>
        <mxCell id="MNPkCpIOQmmKLzgTn6AA-83" value="Data Extraction" style="text;html=1;resizable=0;autosize=1;align=center;verticalAlign=middle;points=[];fillColor=none;strokeColor=none;rounded=0;" vertex="1" parent="1">
          <mxGeometry x="-623" y="340" width="100" height="20" as="geometry" />
        </mxCell>
        <mxCell id="MNPkCpIOQmmKLzgTn6AA-84" value="SFTP Transfer" style="text;html=1;resizable=0;autosize=1;align=center;verticalAlign=middle;points=[];fillColor=none;strokeColor=none;rounded=0;" vertex="1" parent="1">
          <mxGeometry x="-288" y="340" width="90" height="20" as="geometry" />
        </mxCell>
        <mxCell id="MNPkCpIOQmmKLzgTn6AA-95" style="edgeStyle=orthogonalEdgeStyle;rounded=0;orthogonalLoop=1;jettySize=auto;html=1;fillColor=#1ba1e2;strokeColor=#006EAF;strokeWidth=3;" edge="1" parent="1" source="MNPkCpIOQmmKLzgTn6AA-85" target="MNPkCpIOQmmKLzgTn6AA-80">
          <mxGeometry relative="1" as="geometry" />
        </mxCell>
        <mxCell id="MNPkCpIOQmmKLzgTn6AA-85" value="Control Group" style="text;html=1;resizable=0;autosize=1;align=center;verticalAlign=middle;points=[];fillColor=none;strokeColor=none;rounded=0;" vertex="1" parent="1">
          <mxGeometry x="-410" y="144" width="90" height="20" as="geometry" />
        </mxCell>
        <mxCell id="MNPkCpIOQmmKLzgTn6AA-93" style="edgeStyle=orthogonalEdgeStyle;rounded=0;orthogonalLoop=1;jettySize=auto;html=1;fillColor=#1ba1e2;strokeColor=#006EAF;strokeWidth=3;" edge="1" parent="1" source="MNPkCpIOQmmKLzgTn6AA-86" target="MNPkCpIOQmmKLzgTn6AA-71">
          <mxGeometry relative="1" as="geometry">
            <Array as="points">
              <mxPoint x="-688" y="240" />
              <mxPoint x="-688" y="294" />
            </Array>
          </mxGeometry>
        </mxCell>
        <mxCell id="MNPkCpIOQmmKLzgTn6AA-86" value="Target Group" style="text;html=1;resizable=0;autosize=1;align=center;verticalAlign=middle;points=[];fillColor=none;strokeColor=none;rounded=0;" vertex="1" parent="1">
          <mxGeometry x="-733" y="230" width="90" height="20" as="geometry" />
        </mxCell>
        <mxCell id="MNPkCpIOQmmKLzgTn6AA-89" style="edgeStyle=orthogonalEdgeStyle;rounded=0;orthogonalLoop=1;jettySize=auto;html=1;fillColor=#1ba1e2;strokeColor=#006EAF;strokeWidth=3;" edge="1" parent="1" source="MNPkCpIOQmmKLzgTn6AA-87" target="MNPkCpIOQmmKLzgTn6AA-76">
          <mxGeometry relative="1" as="geometry">
            <mxPoint x="-360" y="294" as="targetPoint" />
          </mxGeometry>
        </mxCell>
        <mxCell id="MNPkCpIOQmmKLzgTn6AA-87" value="csv file created" style="text;html=1;resizable=0;autosize=1;align=center;verticalAlign=middle;points=[];fillColor=none;strokeColor=none;rounded=0;" vertex="1" parent="1">
          <mxGeometry x="-460" y="283.61" width="100" height="20" as="geometry" />
        </mxCell>
        <mxCell id="MNPkCpIOQmmKLzgTn6AA-91" style="edgeStyle=orthogonalEdgeStyle;rounded=0;orthogonalLoop=1;jettySize=auto;html=1;strokeWidth=3;fillColor=#1ba1e2;strokeColor=#006EAF;" edge="1" parent="1" source="MNPkCpIOQmmKLzgTn6AA-88" target="MNPkCpIOQmmKLzgTn6AA-80">
          <mxGeometry relative="1" as="geometry" />
        </mxCell>
        <mxCell id="MNPkCpIOQmmKLzgTn6AA-88" value="csv file uploaded to correct location" style="text;html=1;resizable=0;autosize=1;align=center;verticalAlign=middle;points=[];fillColor=none;strokeColor=none;rounded=0;" vertex="1" parent="1">
          <mxGeometry x="-150" y="283.61" width="200" height="20" as="geometry" />
        </mxCell>
        <mxCell id="MNPkCpIOQmmKLzgTn6AA-101" style="edgeStyle=orthogonalEdgeStyle;rounded=0;orthogonalLoop=1;jettySize=auto;html=1;strokeWidth=3;fillColor=#1ba1e2;strokeColor=#006EAF;" edge="1" parent="1" source="MNPkCpIOQmmKLzgTn6AA-99" target="MNPkCpIOQmmKLzgTn6AA-64">
          <mxGeometry relative="1" as="geometry" />
        </mxCell>
        <mxCell id="MNPkCpIOQmmKLzgTn6AA-99" value="In flowing data" style="text;html=1;resizable=0;autosize=1;align=center;verticalAlign=middle;points=[];fillColor=none;strokeColor=none;rounded=0;" vertex="1" parent="1">
          <mxGeometry x="-875" y="144" width="90" height="20" as="geometry" />
        </mxCell>
        <mxCell id="MNPkCpIOQmmKLzgTn6AA-103" value="Union" style="text;html=1;resizable=0;autosize=1;align=center;verticalAlign=middle;points=[];fillColor=none;strokeColor=none;rounded=0;" vertex="1" parent="1">
          <mxGeometry x="-75" y="179" width="50" height="20" as="geometry" />
        </mxCell>
        <mxCell id="MNPkCpIOQmmKLzgTn6AA-104" value="out flowing data&amp;nbsp;" style="text;html=1;resizable=0;autosize=1;align=center;verticalAlign=middle;points=[];fillColor=none;strokeColor=none;rounded=0;" vertex="1" parent="1">
          <mxGeometry x="210" y="144" width="100" height="20" as="geometry" />
        </mxCell>
      </root>
    </mxGraphModel>
  </diagram>
</mxfile>
